<?xml version="1.0" encoding="UTF-8"?><svg id="Layer_1" xmlns="http://www.w3.org/2000/svg" viewBox="0 0 1200 506.76"><defs><style>.cls-1{fill:#c1d82f;stroke-width:1.31px;}.cls-1,.cls-2,.cls-3{stroke:#fff;}.cls-4,.cls-2,.cls-3{fill:#fff;}.cls-5{fill:#231f20;}.cls-2{stroke-width:1.1px;}.cls-3{stroke-width:2.17px;}</style></defs><path class="cls-4" d="m22.09,173.2c-2.51-7.77-4.82-12.8-7.76-14.9-2.32-1.46-6.5-1.89-8.4-1.89-2.1,0-3.36-.21-3.36-1.89,0-1.48,1.68-1.9,4.62-1.9,10.91,0,22.46.63,24.35.63s11.13-.63,23.3-.63c2.94,0,4.42.63,4.42,1.9,0,1.68-1.68,1.89-3.78,1.89-1.68,0-3.79,0-5.25.84-1.89.85-2.3,2.31-2.3,4.62,0,2.74,2.1,9.88,4.61,19.33,3.57,13.85,23.1,77.48,26.87,89.24h.63l40.74-109.39c2.1-5.89,3.57-7.57,5.25-7.57,2.31,0,3.36,3.15,6.09,9.88l43.67,105.62h.63c3.78-14.07,20.59-69.49,27.92-94.07,1.47-4.82,2.11-9.23,2.11-12.18,0-3.36-1.89-6.3-10.08-6.3-2.1,0-3.57-.63-3.57-1.89,0-1.48,1.67-1.9,4.83-1.9,11.13,0,19.94.63,21.83.63,1.47,0,10.51-.63,17.44-.63,2.31,0,3.78.41,3.78,1.69,0,1.46-1.06,2.09-2.94,2.09-2.1,0-5.04.21-7.34,1.06-5.05,1.89-7.36,10.28-11.76,22.25-9.66,26.46-31.71,93.24-42,124.74-2.31,7.35-3.36,9.87-6.08,9.87-2.11,0-3.37-2.51-6.52-10.28l-43.67-105.22h-.43c-3.99,10.73-31.91,85.05-40.94,104.38-3.98,8.61-5.03,11.13-7.56,11.13-2.1,0-2.93-2.31-4.83-7.77L22.09,173.2Z"/><path class="cls-4" d="m245.74,232c0-35.9,23.73-82.32,86.72-82.32,52.3,0,84.84,30.45,84.84,78.54s-33.6,86.1-86.94,86.1c-60.27,0-84.63-45.15-84.63-82.32Zm142.17,3.98c0-47.03-27.09-76.22-61.53-76.22-24.15,0-51.66,13.44-51.66,65.72,0,43.69,24.15,78.33,64.47,78.33,14.7,0,48.73-7.13,48.73-67.83Z"/><path class="cls-4" d="m474.28,250.48c0,26.86,0,41.36,4.41,45.13,3.56,3.16,9.03,4.63,25.41,4.63,11.13,0,19.32-.2,24.57-5.89,2.52-2.73,5.03-8.6,5.45-12.58.21-1.9.63-3.15,2.31-3.15,1.47,0,1.68,1.04,1.68,3.55,0,2.33-1.46,18.07-3.15,24.15-1.27,4.63-2.32,5.67-13.23,5.67-15.12,0-26.04-.41-35.48-.62-9.46-.42-17.03-.63-25.62-.63-2.32,0-6.93,0-11.98.21-4.83,0-10.29.42-14.48.42-2.75,0-4.2-.63-4.2-2.11,0-1.06.84-1.69,3.36-1.69,3.15,0,5.68-.4,7.55-.83,4.21-.84,5.26-5.46,6.09-11.54,1.05-8.83,1.05-25.43,1.05-44.74v-36.97c0-31.91,0-37.79-.42-44.51-.42-7.14-2.09-10.5-9.02-11.96-1.68-.43-4.2-.63-6.93-.63-2.3,0-3.58-.43-3.58-1.89s1.48-1.9,4.63-1.9c9.87,0,23.1.63,28.76.63,5.04,0,20.38-.63,28.57-.63,2.93,0,4.42.41,4.42,1.9s-1.28,1.89-3.79,1.89c-2.31,0-5.67.21-8.19.63-5.67,1.05-7.36,4.63-7.78,11.96-.42,6.72-.42,12.6-.42,44.51v36.97Z"/><path class="cls-4" d="m601.53,250.48c0,20.15,0,35.91,1.05,44.74.62,6.08,1.88,10.7,8.19,11.54,2.95.43,7.57.83,10.51.83,2.72,0,3.57.63,3.57,1.69,0,1.47-1.48,2.11-4.62,2.11-13.23,0-26.46-.63-31.92-.63s-18.7.63-26.68.63c-2.94,0-4.41-.42-4.41-2.11,0-1.06.85-1.69,3.15-1.69,3.15,0,5.67-.4,7.56-.83,4.2-.84,5.25-5.46,6.08-11.54,1.06-8.83,1.06-24.58,1.06-44.74v-36.97c0-31.91,0-37.79-.41-44.51-.43-7.14-2.11-10.5-9.04-11.96-1.68-.43-5.25-.63-8.19-.63-2.1,0-3.57-.43-3.57-1.68,0-1.69,1.68-2.1,4.83-2.1,5.47,0,11.55.21,17.01.21,5.47.21,10.29.43,13.24.43,7.98,0,50.6,0,55.44-.22,3.99-.21,6.5-.21,8.61-.84,1.25-.41,2.3-1.25,3.36-1.25.83,0,1.46.84,1.46,1.88,0,1.48-1.04,4-1.66,9.45-.22,2.1-.63,14.49-1.06,17.01-.21,1.67-.62,2.94-2.1,2.94s-1.9-1.05-2.11-3.36c0-1.68,0-5.04-1.26-7.98-1.47-2.94-5.87-6.09-13.86-6.3l-32.33-.63c-1.27,0-1.9.63-1.9,2.94v52.5c0,1.25.22,1.88,1.48,1.88l26.87-.22c3.58,0,6.52,0,9.45-.2,3.99-.21,6.94-1.06,9.04-3.78,1.04-1.26,1.47-2.08,2.72-2.08.85,0,1.26.61,1.26,1.87s-1.06,6.51-1.69,13.03c-.41,4.2-.83,13.85-.83,15.34,0,1.88,0,3.99-2.1,3.99-1.26,0-1.68-1.49-1.68-2.93s-.41-4.01-1.27-6.53c-1.03-2.94-4.2-6.71-10.7-7.55-5.26-.62-27.51-.62-31.08-.62-1.06,0-1.48.41-1.48,1.88v17.02Z"/><path class="cls-4" d="m705.68,213.51c0-31.91,0-37.79-.41-44.51-.41-7.14-2.1-10.5-9.04-11.96-1.68-.43-5.24-.63-8.19-.63-2.31,0-3.56-.43-3.56-1.89s1.47-1.9,4.61-1.9c5.67,0,11.76.21,17.01.21,5.47.21,10.29.43,13.23.43,6.74,0,48.52,0,52.51-.22,3.99-.41,7.34-.84,9.04-1.25,1.05-.21,2.31-.84,3.36-.84s1.25.84,1.25,1.88c0,1.48-1.05,4-1.68,13.65-.21,2.1-.62,11.34-1.05,13.86-.21,1.05-.63,2.3-2.1,2.3s-1.89-1.05-1.89-2.94c0-1.47-.22-5.03-1.27-7.56-1.47-3.78-3.56-6.3-14.07-7.55-3.56-.43-25.62-.85-29.82-.85-1.04,0-1.47.63-1.47,2.1v53.14c0,1.48.21,2.3,1.47,2.3,4.62,0,28.77,0,33.61-.41,5.03-.41,8.19-1.06,10.07-3.14,1.48-1.68,2.31-2.72,3.37-2.72.84,0,1.47.41,1.47,1.67s-.83,4.61-1.68,15.33c-.2,4.21-.84,12.6-.84,14.07,0,1.67,0,3.99-1.89,3.99-1.47,0-1.9-.83-1.9-1.89-.21-2.11-.21-4.83-.84-7.56-1.05-4.2-3.98-7.34-11.76-8.2-3.98-.41-24.77-.61-29.82-.61-1.05,0-1.26.83-1.26,2.1v16.58c0,7.13-.2,26.45,0,32.54.42,14.49,3.78,17.66,25.2,17.66,5.45,0,14.28,0,19.75-2.52,5.45-2.53,7.97-6.93,9.44-15.55.41-2.31.83-3.14,2.3-3.14,1.68,0,1.68,1.69,1.68,3.77,0,4.83-1.68,19.11-2.72,23.31-1.48,5.46-3.37,5.46-11.35,5.46-15.74,0-27.3-.41-36.33-.62-9.02-.42-15.53-.63-21.84-.63-2.3,0-6.91,0-11.96.21-4.83,0-10.29.42-14.48.42-2.74,0-4.2-.63-4.2-2.11,0-1.06.83-1.69,3.35-1.69,3.16,0,5.68-.4,7.57-.83,4.18-.84,5.24-5.46,6.07-11.54,1.05-8.83,1.05-25.43,1.05-44.74v-36.97Z"/><path class="cls-3" d="m65.17,438.14c-.12.75-.24.99-.74,1.47-.37.36-.49.49-.62.85-1.23,2.24-2.7,3.72-3.94,3.72-1.73,0-3.46-1.1-3.94-2.33-.5-1.27-.88-3.22-1.24-5.69-.25-1.24-1.37-16.16-1.37-19.99-2.96,16.16-10.72,29.48-21.21,29.48-8.27,0-13.57-8.75-13.57-20.84,0-21.82,14.93-37.12,26.76-37.12,3.33,0,5.93.99,8.51,3.21.38-4.59.38-7.54.38-12.1,0-7.04-.26-10.11-.87-12.96-.11-.73-.24-1.37-.24-1.62,0-.48.12-.85.37-1.21l.74-1.13.36-.74.88-.73.98-.62c.12-.15.62-.25,1.36-.25,2.11,0,3.58,1.96,3.58,4.43,0,.64-.12,1.49-.24,2.74-.25,1.47-.49,3.57-.87,7.26-.61,7.4-.86,12.46-1.35,22.33,1.73,1.98,3.45,4.93,3.45,6.41,0,2.22-1.72,5.55-3.7,6.31-.25,13.44,1.84,26.39,6.17,27.76.37.11.49.23.49.48l-.12.87Zm-20.11-43.8c-10.61,0-20.6,14.19-20.6,29.36,0,9,3.33,15.3,9.12,15.3s10.99-7.41,15.3-19.86c2.22-6.41,3.83-13.94,4.07-19.74-1.36-2.84-3.7-5.06-7.9-5.06Z"/><path class="cls-3" d="m141.3,428.26c-3.45,4.32-15.29,16.77-30.83,16.77-12.46,0-20.11-7.63-20.11-20.35,0-11.21,6.41-20.71,9.01-23.68-.87-.85-1.12-1.47-1.12-2.57,0-2.35,1.6-4.33,3.45-4.33.99,0,1.61.37,2.35,1.48,2.84-3.58,11.23-11.35,19.49-11.35,5.79,0,9.74,4.21,9.74,10.48,0,8.51-8.13,15.67-17.75,15.67-4.68,0-9.62-1.86-12.95-4.82-2.46,3.09-5.67,8.51-5.67,16.91,0,10.24,6.16,16.42,16.02,16.42,11.97,0,21.1-8.79,23.2-11.98-.75-.74-.99-1.23-.99-2.1,0-2.84,2.22-5.2,4.94-5.2,2.22,0,3.45,1.27,3.45,3.59,0,1.73-.5,2.84-2.23,5.05Zm-19.24-37.74c-6.78,0-12.58,5.93-15.43,9.75,2.35,2.58,5.81,3.82,9.75,3.82,6.18,0,11.23-3.57,11.23-8.14,0-3.34-2.09-5.44-5.55-5.44Z"/><path class="cls-3" d="m168.93,435.91c.61.49,4.57,1.11,8.26,1.11,8.52,0,15.54-1.48,15.54-4.07,0-1.58-1.23-2.59-4.69-4.2-17.88-7.87-24.54-15.05-24.54-26.76s8.27-20.61,19.36-20.61c6.3,0,11.72,2.84,15.79,7.89,2.09,2.71,3.82,6.42,3.82,8.51,0,.63-.12,1.24-.49,1.73-.25.23-.49.5-.74.86-.25.13-.37.23-.49.23l-.74.27c-.74.1-.62.1-1.23.73-.36.49-.74.6-1.11.6-.62,0-1.11-.73-1.36-1.71v-.77c-.49-1.46-.61-1.96-.61-1.96-1.11-5.92-7.04-10.71-13.21-10.71-7.65,0-12.83,5.77-12.83,14.54,0,13.32,12.7,18.24,19.74,21.71,5.42,2.58,6.78,3.31,7.64,4.06,1.72,1.35,3.2,3.96,3.2,5.79v.62c.25.74.62,1.11.62,2.1,0,.61-.25,1.35-.38,1.97-.36,2.07-1.11,2.96-3.57,3.82-2.96.85-11.34,1.61-18,1.61h-3.83l-2.1-.24c-.24,0-2.1.12-2.96.36-1.97.5-2.22.5-3.21.5-1.85,0-3.08-1.47-3.08-3.69,0-3.09,1.35-5.2,3.57-5.2.62,0,.87.13,1.11.38l.5.5Z"/><path class="cls-3" d="m237.14,389.65c-.25.24-.62,1.48-.87,2.6-.5,1.74-.86,3.22-.86,6.18,0,0-.12,4.3-.12,28.48,0,4.46.12,5.3.37,7.27.25,1.48.61,1.98,1.35,3.43.25.52.38,1.01.38,1.75,0,.86-.24,1.48-.61,2.09-1.36,1.85-2.83,2.84-4.45,2.84-2.47,0-4.32-1.97-4.32-4.43,0-1.36.25-1.98.75-3.34.12-.49.24-1.11.37-2.21,1.23-12.22,1.11-24.68.86-37.02-.12-2.84-.36-4.31-.86-5.18l-.73-1.09c-.13-.37-.25-.88-.25-1.5,0-.84.25-1.58,1.36-2.95,1.35-2.1,3.95-3.57,5.68-3.57,1.1,0,2.34.84,2.59,1.97l.37,1.59c.12.51.12.75.12.98,0,.39-1.1,1.97-1.1,2.1Zm-1.61-14.66c-.75.22-1.85.62-2.47.99-.49.23-1.11.47-1.35.47-1.12,0-1.98-1.24-2.72-4.44-.12-.73-.24-1.1-.74-2.84-.37-.85.74-2.22,1.85-2.84,1.36-.61,2.6-1.71,3.45-1.71,2.35,0,2.21.85,3.45,2.57.62.74,1.12,2.72,1.12,4.32s-.98,3.08-2.59,3.46Z"/><path class="cls-3" d="m275.86,478.34c-10.72,0-17.26-5.56-17.26-14.92,0-10.62,7.39-19.12,12.45-22.96-3.57.87-9-1.57-9-8.13s6.54-13.69,16.28-18.36c-4.32-2.11-6.9-6.68-6.9-12.1,0-10.12,9.12-18.25,19.73-18.25,1.23,0,1.6,0,2.84.23,1.23-3.31,4.44-10.83,8.5-16.51,3.33-4.68,5.93-6.05,7.78-6.05.98,0,1.72.39,2.59,1.25s1.35,1.83,1.35,3.08c0,2.34-.98,2.47-2.96,2.84-1.85.24-3.7,1.1-5.55,2.95-3.32,3.32-6.17,8.63-7.9,13.44.63.25.99.5.99.5.37-.12.63-.12,1.12-.12,1.23,0,1.59.12,2.71.75,4.93,2.32,8.02,6.89,8.02,12.08,0,10.6-9.62,18.76-22.08,18.76-1.98,0-2.83-.14-5.3-.36-7.53,2.57-14.31,9.49-14.31,14.66,0,3.33,1.85,5.43,5.17,5.43.38,0,1.24-.25,1.72-.25,3.09-2.22,7.29-4.81,9.88-6.29,2.59-1.49,6.78-3.34,8.38-3.34,1.48,0,2.09.87,2.59,2.72.51,1.47,0,3.33-.49,4.19,1.73-.25,2.96-.37,4.45-.37,9.25,0,15.66,5.19,15.66,13.57,0,15.43-22.58,31.57-40.47,31.57Zm23.69-38.85c-6.66,0-11.09,3.94-12.21,7.03-1.73-.86-3.08-3.09-3.08-5.06,0-.73.73-1.85,1.97-2.95,1.73-1.72,6.29-4.07,9.01-4.94,0,0-.74-.5-2.35,0-12.7,3.92-27.13,16.89-27.13,28.37,0,6.52,4.44,10.36,11.59,10.36,15.54,0,32.69-13.94,32.69-24.05,0-5.29-3.7-8.75-10.48-8.75Zm.12-48.97c0,1-.86,2.22-1.73,2.97-1.47-2.46-4.56-3.72-7.89-3.72-6.78,0-12.33,5.44-12.33,12.22,0,6.05,4.32,9.73,11.34,9.73,8.63,0,15.43-5.92,15.43-13.3,0-3.72-1.61-6.43-4.82-7.91Z"/><path class="cls-3" d="m377.74,440.46c-.99.87-2.84,2.1-3.82,2.85-.37.24-.86.24-1.73.24s-1.59-1.34-1.59-2.83c0,0,.23-2.84.23-3.33,0-.13.24-.99.24-.99.62-2.08.76-2.84,1-4.94,0-.99.12-4.19.12-6.65,0-20.24-4.19-31.58-12.2-31.58s-13.45,12.95-14.43,24.67c-.25,2.21-.37,7.04-.37,9.87,0,2.59.24,4.44.98,6.78.49,1.73.62,2.23.62,2.94,0,1.4-.25,1.88-1.12,2.86-.25.23-.62.72-.99.85-.25.12-1.73,1.99-1.96,2.1l-.88.74c-.12.12-.36.24-.61.24s-.87-.12-1.11-.12c-.37,0-.74-.5-.98-1.34-.5-1.12-.63-1.86-.63-2.74,0-.83.13-1.95.5-5.53.25-2.71.37-3.71.49-6.3.25-7.03.74-21.09-.25-35.89,0-1.46-.12-2.1-.12-2.6,0-4.07,2.35-7.52,5.05-7.52,2.96,0,4.69,1.37,4.69,3.84,0,.12-.24.36-.5.6-.85.62-1.1.75-1.59,1.74-.5.97-.75,3.81-.87,7.52v6.89c1.61-6.4,7.9-15.9,16.27-15.9,11.6,0,15.91,17.75,15.91,36.75,0,2.95.13,4.93.25,6.05.37,2.58.12,1.84.61,4.19l.39,1.73c.11.25.11.5.11.74,0,1.86-.62,3.09-1.73,4.05Z"/><path class="cls-3" d="m454.83,435.91c.63.49,4.57,1.11,8.27,1.11,8.51,0,15.54-1.48,15.54-4.07,0-1.58-1.23-2.59-4.68-4.2-17.89-7.87-24.55-15.05-24.55-26.76s8.26-20.61,19.35-20.61c6.3,0,11.72,2.84,15.79,7.89,2.09,2.71,3.82,6.42,3.82,8.51,0,.63-.13,1.24-.5,1.73-.25.23-.49.5-.74.86-.24.13-.36.23-.5.23l-.74.27c-.75.1-.61.1-1.23.73-.36.49-.74.6-1.1.6-.62,0-1.12-.73-1.36-1.71v-.77c-.49-1.46-.62-1.96-.62-1.96-1.11-5.92-7.03-10.71-13.2-10.71-7.64,0-12.82,5.77-12.82,14.54,0,13.32,12.7,18.24,19.73,21.71,5.42,2.58,6.8,3.31,7.65,4.06,1.73,1.35,3.21,3.96,3.21,5.79v.62c.23.74.62,1.11.62,2.1,0,.61-.25,1.35-.39,1.97-.35,2.07-1.1,2.96-3.57,3.82-2.96.85-11.34,1.61-18.01,1.61h-3.82l-2.1-.24c-.25,0-2.11.12-2.96.36-1.97.5-2.23.5-3.2.5-1.86,0-3.09-1.47-3.09-3.69,0-3.09,1.36-5.2,3.57-5.2.61,0,.86.13,1.11.38l.49.5Z"/><path class="cls-3" d="m508.46,387.2c0-.5.26-1.37.86-2.11.62-.74,1.61-1.11,2.35-1.24.25,1.63,1.48,2.47,3.7,2.47,1.36,0,5.18-.22,6.54-.72.25-4.21-.37-9.87-.74-11.61-.25-.85-.12-1.61-.12-2.1,0-1.84.98-3.44,2.7-4.56.51-.38.76-.6,1.37-1,.24-.24.48-.36.86-.36s.61.13.75.25c.85.61.49.36,1.47.98.12.13.37.38.61.74.51.86.62,1.36.62,1.98,0,.25,0,.75-.12,1.48-.61,6.9-1,12.83-1,12.83,2.11-.61,4.45-1.72,7.91-1.72,1.97,0,4.06.61,4.92,1.23.62.36.87,1.34.87,2.7,0,.99-.12,1.25-.61,1.72l-.75.76c-.37.36-.62.48-1.11.48l-1.12-.12c-1.1-.23-2.71-.36-3.94-.36-2.34,0-5.17.85-6.66,1.47-.61,6.79-1.35,18.38-1.35,25.29,0,11.12.99,17.4,3.33,19.99l.75.99c.23.24.36.49.36.84,0,.89-.49,1.51-.36,2.47.12,1.01-.13,1.5-1.23,3.11-.75,1.22-1.61,1.95-2.24,1.95s-1.23-.48-1.72-.98c-.24-.5-.38-.5-1.23-.74-1.23-.24-1.36-.36-1.73-1.46-.38-1-.61-1.76-.61-2.85v-.86c.12-.64.24-1.24.24-1.86,0-.86-.36-1.36-.61-2.1-.62-1.6-.73-3.08-.73-6.55,0-2.82.11-4.92.11-4.92.13-4.32.25-7.16.38-8.26.99-19.62.62-15.06.99-22.58-2.46.64-7.89,1.85-9.86,1.85-2.59,0-3.45-.73-3.71-3.46-.12-.62-.23-1.22-.23-1.83v-.5l.11-.75Z"/><path class="cls-3" d="m563.74,396.32l.23-1.73c.13-.6.26-.97.26-1.48,0,0-.13-.25-.13-.86l-.25-1.22v-.76l-.12-.12c0-.86.49-2.35.98-3.06.12-.26.25-.39.25-.39l.23-.48c.38-1,1.49-1.74,2.72-1.74.74,0,1.36.24,2.1.86l.87.75c.74.48.86.73.99,1.46,0,.39.11.51.49,1.13.24.36.24.47.24.84,0,.62-.24,1.38-.49,1.61l-.24.38c-.51.48-.99,2.21-1.85,5.91-1.24,5.92-2.1,14.05-2.1,20.96,0,13.57,3.44,20.5,10.36,20.5,9.12,0,15.79-15.68,15.79-36.89,0-2.84-.14-5.18-.38-7.04l-.49-2.96c-.13-.73-.13-1.73-.13-2.59s0-1.34.26-1.85c0-.24.23-.86.36-.86l.62-.38.25-.22c.13-.12.24-.12.61-.27.49-.13.75-.23,1.11-.74.36-.37.5-.49.98-.49.75,0,.86,0,1.24.25.37.25.62.5.73.5l.75.49c.73.39.98.75,1.23,1.37,0,.12,0,.36.11.6.38,1.25.5,1.73.5,2.24q0,.35-.25.86c-.98,2.59-1.23,6.65-1.23,15.28s.38,13.69,1.36,18.88c1.11,5.67,3.58,12.21,4.93,12.83.13,0,.26.12.26.12v.37c0,.74-.49,1.97-1.24,2.83-1.1,1.49-1.6,1.74-2.95,1.74q-.12,0-.37-.12c-.24-.27-.5-.27-1.36-.27-.5-.1-.63-.1-.63-.1l-.36-.25s-.13-.14-.24-.14c-.14,0-.25,0-.38-.22,0-.14-.12-.27-.23-.39-.25-.38-.38-.61-.38-.73,0,0-.13-.15-.24-.5l-.24-.49c-1.12-2.84-3.22-10.25-3.09-20.61-2.59,16.9-9.01,26.15-18,26.15-9.75,0-15.42-9.86-15.42-27.14,0-6.66.87-15.91,1.98-21.83Z"/><path class="cls-3" d="m676.97,438.14c-.14.75-.25.99-.75,1.47-.36.36-.49.49-.61.85-1.24,2.24-2.72,3.72-3.96,3.72-1.73,0-3.45-1.1-3.95-2.33-.49-1.27-.85-3.22-1.23-5.69-.25-1.24-1.36-16.16-1.36-19.99-2.95,16.16-10.72,29.48-21.2,29.48-8.27,0-13.57-8.75-13.57-20.84,0-21.82,14.93-37.12,26.76-37.12,3.33,0,5.93.99,8.52,3.21.37-4.59.37-7.54.37-12.1,0-7.04-.26-10.11-.88-12.96-.1-.73-.24-1.37-.24-1.62,0-.48.13-.85.37-1.21l.75-1.13.36-.74.87-.73.99-.62c.13-.15.61-.25,1.36-.25,2.09,0,3.57,1.96,3.57,4.43,0,.64-.11,1.49-.25,2.74-.24,1.47-.49,3.57-.86,7.26-.61,7.4-.86,12.46-1.34,22.33,1.72,1.98,3.44,4.93,3.44,6.41,0,2.22-1.73,5.55-3.7,6.31-.25,13.44,1.85,26.39,6.17,27.76.37.11.5.23.5.48l-.12.87Zm-20.1-43.8c-10.62,0-20.61,14.19-20.61,29.36,0,9,3.34,15.3,9.13,15.3s10.99-7.41,15.29-19.86c2.23-6.41,3.82-13.94,4.08-19.74-1.36-2.84-3.71-5.06-7.89-5.06Z"/><path class="cls-3" d="m713.71,389.65c-.25.24-.62,1.48-.86,2.6-.49,1.74-.87,3.22-.87,6.18,0,0-.13,4.3-.13,28.48,0,4.46.13,5.3.37,7.27.25,1.48.62,1.98,1.35,3.43.26.52.39,1.01.39,1.75,0,.86-.26,1.48-.62,2.09-1.36,1.85-2.83,2.84-4.45,2.84-2.46,0-4.31-1.97-4.31-4.43,0-1.36.26-1.98.74-3.34.12-.49.24-1.11.37-2.21,1.22-12.22,1.1-24.68.86-37.02-.12-2.84-.37-4.31-.86-5.18l-.75-1.09c-.11-.37-.24-.88-.24-1.5,0-.84.24-1.58,1.36-2.95,1.35-2.1,3.94-3.57,5.67-3.57,1.11,0,2.35.84,2.59,1.97l.38,1.59c.11.51.11.75.11.98,0,.39-1.1,1.97-1.1,2.1Zm-1.61-14.66c-.74.22-1.84.62-2.46.99-.49.23-1.1.47-1.36.47-1.11,0-1.97-1.24-2.72-4.44-.12-.73-.24-1.1-.73-2.84-.38-.85.73-2.22,1.84-2.84,1.35-.61,2.6-1.71,3.45-1.71,2.35,0,2.23.85,3.44,2.57.62.74,1.12,2.72,1.12,4.32s-.99,3.08-2.6,3.46Z"/><path class="cls-3" d="m765.18,445.16c-14.42,0-25.05-13.2-25.05-31.19,0-16.41,10.36-30.96,21.96-30.96,4.2,0,7.27,1.59,9.99,5.06,1.11-.62,1.85-.87,3.22-.87,8.25,0,14.54,10.85,14.54,24.91,0,18.74-10.74,33.05-24.66,33.05Zm9.61-51.54c.75,1.1.87,1.96.87,2.58,0,2.24-2.09,4.08-4.69,4.08-.49,0-.86,0-1.35-.12-.13-5.31-3.96-9.76-8.64-9.76-8.01,0-14.43,10.75-14.43,23.58,0,14.41,7.78,24.54,18.63,24.54s18.37-10,18.37-24.93c0-10.23-3.57-17.88-8.76-19.96Z"/><path class="cls-2" d="m1099.57,411.28c0,.07-.04.19-.16.4-.24.74-.57,3-.9,6.1-.33,2.87-.63,12.77-.41,17.82.08,2.29.15,3.31.37,4.36.27,1.29.43,1.99,2.42,1.52,2.81-.75,9.51-2.8,16.25-2.8,1.57,0,2.25.47,2.25,1.77,0,.58-.2,1.33-.61,2.29-.24.75-.58,1.18-.88,1.18-.64,0-1.29-1.81-5.94-1.81s-9.96,2.15-11.85,2.89c-1.37.53-1.74.92-2.97.92-1.4,0-2.48-1.4-2.48-3.06,0-.07.43-2.85.43-3.22.16-.97.16-1.11.22-3.55.2-14.81.43-21.28.43-21.28,0-.48.06-1.01.11-1.55.04-.26.04-.48.04-.64,0-.21-.04-.5-.08-.77-.06-.19-.06-.31-.12-.36v-.27c0-.64.16-1.08.47-1.28.37-.27.37-.32.53-.54l.33-.38c.39-.48.66-.63,1.02-.63.56,0,.64.05.92.27l.3.21c.48.37.71.68.71,1.07,0,.11-.06.26-.11.36l-.18.37-.11.58Z"/><path class="cls-2" d="m1133.4,411.28c0,.07-.06.19-.16.4-.27.74-.59,3-.9,6.1-.31,2.87-.65,12.77-.43,17.82.12,2.29.14,3.31.37,4.36.27,1.29.43,1.99,2.42,1.52,2.81-.75,9.51-2.8,16.25-2.8,1.61,0,2.25.47,2.25,1.77,0,.58-.2,1.33-.6,2.29-.26.75-.59,1.18-.92,1.18-.61,0-1.27-1.81-5.92-1.81s-9.96,2.15-11.85,2.89c-1.37.53-1.76.92-2.99.92-1.4,0-2.44-1.4-2.44-3.06,0-.07.41-2.85.41-3.22.16-.97.16-1.11.23-3.55.2-14.81.41-21.28.41-21.28,0-.48.06-1.01.12-1.55.07-.26.07-.48.07-.64,0-.21-.07-.5-.13-.77-.06-.19-.06-.31-.12-.36v-.27c0-.64.18-1.08.49-1.28.37-.27.37-.32.56-.54l.31-.38c.37-.48.65-.63,1.02-.63.53,0,.64.05.92.27l.29.21c.5.37.72.68.72,1.07,0,.11-.06.26-.1.36l-.18.37-.08.58Z"/><path class="cls-2" d="m1194.54,439.22c-2.72,3.16-9.53,6.79-16.49,6.79-8.32,0-17.38-4.17-17.38-16.96,0-11.77,10.59-19.9,20.49-19.9,7.8,0,10.92,3.42,10.92,5.99s-1.88,4.17-3.62,4.17c-1.62,0-2.58-.86-2.58-2.14,0-.42.06-.71.27-.8.49.06,1.03-.21,1.03-1.07,0-1.4-1.29-3.58-5.68-3.58-9.36,0-17.23,7.33-17.23,16.7,0,10.11,6.41,15.07,14.22,15.07,7.34,0,11.31-3.54,14.14-7.18.26-.36.43-.95,1-.95,1.02,0,1.64,1.12,1.64,2.24,0,.53-.24,1.07-.72,1.6Z"/><g><path class="cls-1" d="m865.86,417.92s-8.53-22.22,8.54-41.01c17.09-18.8,39.3-42.7,52.97-54.67,13.67-11.97,27.32-35.89,54.66-29.04,27.36,6.83,32.47,5.12,41,17.07,8.54,11.97,17.09,39.32,22.22,51.26,5.12,11.96,20.51,42.71,20.51,52.96s5.1,32.46-8.57,42.72c-13.67,10.26-29.02,17.09-39.29,13.67-10.24-3.41-25.62-20.51-32.47-20.51s-25.61,1.71-32.43-1.71c-6.83-3.41-17.09-15.37-23.92-13.67-6.84,1.69-18.79,3.4-29.04,3.4s-34.17-20.47-34.17-20.47Z"/><path class="cls-1" d="m1096.5,267.57c5.12-6.84,41-23.92,46.12-23.92s18.8,3.41,22.21,10.25c3.42,6.83,6.85,23.92,3.42,35.89-3.42,11.95,1.72,23.91-10.26,34.15-11.95,10.27-27.32,29.05-39.29,25.64-11.97-3.42-29.05-15.37-32.46-27.34-3.42-11.97-1.7-29.04,1.7-37.58,3.42-8.56,8.54-17.09,8.54-17.09Z"/><path class="cls-1" d="m1055.5,118.94c8.54-6.84,22.21-15.38,29.05-15.38s22.19,5.12,25.61,11.95c3.4,6.84,11.97,20.51,10.25,41.01-1.7,20.5-1.7,34.17-10.25,47.84-8.54,13.67-23.91,25.63-35.86,22.21-11.97-3.42-35.88-17.09-41.02-30.75-5.11-13.67,3.41-32.46,8.56-44.42,5.13-11.96,13.65-32.45,13.65-32.45Z"/><path class="cls-1" d="m934.2,178.73s-8.54-13.66-8.54-29.05,11.94-25.62,13.67-34.17c1.71-8.53,15.37-25.62,23.92-30.75,8.54-5.12,20.51-8.53,27.35-3.42,6.81,5.13,17.07,17.1,20.49,34.17,3.41,17.1,6.81,44.43-3.42,58.09-10.26,13.67-15.39,22.21-29.05,23.92-13.68,1.72-29.04,3.42-34.17-3.42-5.12-6.84-10.25-15.38-10.25-15.38Z"/><path class="cls-1" d="m826.57,240.23s-1.7-32.46,8.54-42.7c10.25-10.26,20.5-18.8,27.33-18.8s34.17,13.67,35.88,20.52c1.71,6.82,18.81,22.21,17.09,34.16-1.71,11.95-3.42,35.88-10.26,42.69-6.83,6.84-30.75,23.93-41,20.51-10.25-3.42-23.92-18.8-27.34-27.33-3.42-8.56-10.25-29.06-10.25-29.06Z"/><path class="cls-1" d="m840.24,173.6s-11.95-17.07-6.83-29.05c5.12-11.94,11.96-17.06,11.96-17.06,0,0,13.67,10.24,8.54,17.06-5.13,6.84,1.7,23.94-5.13,25.64-6.83,1.7-8.55,3.41-8.55,3.41Z"/><path class="cls-1" d="m978.62,62.57s-1.7-11.97,3.41-18.8c5.13-6.84,13.68-20.51,15.38-15.38,1.7,5.13,10.26,22.21,5.13,25.63-5.13,3.42-10.26,8.55-10.26,8.55h-13.66Z"/><path class="cls-1" d="m1091.38,88.19l17.08,6.84s3.42-11.97,1.7-20.5c-1.7-8.54-6.84-15.38-6.84-15.38l-8.53,10.26-3.41,15.36v3.43Z"/><path class="cls-1" d="m1173.38,236.82l15.38-25.62s10.23,13.67,6.83,22.21c-3.42,8.53-10.27,25.62-10.27,25.62l-6.82-13.68-5.12-8.53Z"/></g><g><path class="cls-5" d="m999.11,108.69s5.13,22.22,5.13,34.17,1.72,20.5-5.13,29.04c-6.83,8.54-15.36,13.67-20.49,15.38-5.13,1.71-23.92,1.71-23.92,1.71,0,0,10.25,0,23.92-15.38,13.66-15.37,15.38-17.08,17.08-34.17,1.71-17.09,3.41-30.75,3.41-30.75Z"/><path class="cls-5" d="m855.61,279.52s11.97,13.68,22.22,5.14c10.24-8.56,20.49-13.67,23.91-22.21,3.42-8.55,5.14-29.04,5.14-29.04,0,0-5.14-17.09-8.55-23.93-3.41-6.84,3.41,22.22-1.71,34.16-5.11,11.97-5.11,22.21-13.66,27.34-8.55,5.12-27.34,8.53-27.34,8.53Z"/><path class="cls-5" d="m1057.19,211.2s25.63,13.67,32.46,3.4c6.84-10.24,17.08-17.07,20.51-29.04,3.4-11.96,5.12-25.62,3.4-35.88-1.68-10.25-5.1-25.62-5.1-25.62,0,0,0,42.72-3.42,52.96-3.42,10.25-10.26,23.93-18.79,27.34-8.54,3.4-29.06,6.84-29.06,6.84Z"/><path class="cls-5" d="m1110.16,337.61s13.67,8.54,27.34-3.4c13.67-11.97,17.09-11.97,20.49-22.23,3.42-10.24,6.84-29.04,6.84-29.04,0,0-11.94,17.09-17.08,27.33-5.13,10.27-10.25,15.39-17.07,18.81-6.84,3.42-20.51,8.53-20.51,8.53Z"/><path class="cls-5" d="m954.7,436.69s29.06-3.4,37.58,1.71c8.54,5.15,20.51,20.51,32.46,20.51s25.63,0,27.34-13.66c1.72-13.67,5.12-18.8-1.7-39.31-6.84-20.5-29.06-76.87-29.06-76.87,0,0,25.66,85.41,22.22,95.66-3.4,10.26-6.83,22.24-17.07,18.81-10.25-3.43-35.86-17.09-44.43-15.39-8.54,1.72-27.34,8.53-27.34,8.53Z"/></g></svg>