<?xml version="1.0" standalone="no"?>
<!DOCTYPE svg PUBLIC "-//W3C//DTD SVG 20010904//EN"
 "http://www.w3.org/TR/2001/REC-SVG-20010904/DTD/svg10.dtd">
<svg version="1.0" xmlns="http://www.w3.org/2000/svg"
 width="558.000000pt" height="558.000000pt" viewBox="0 0 558.000000 558.000000"
 preserveAspectRatio="xMidYMid meet">
<metadata>
Created by potrace 1.14, written by Peter Selinger 2001-2017
</metadata>
<g transform="translate(0.000000,558.000000) scale(0.100000,-0.100000)"
fill="#000000" stroke="none">
<path d="M2556 5493 c-47 -47 -146 -189 -161 -233 -14 -41 -23 -155 -13 -166
4 -3 41 -6 85 -6 l79 -2 71 59 c45 37 74 68 78 84 10 49 -68 283 -97 289 -8 1
-27 -10 -42 -25z"/>
<path d="M3879 5090 c-19 -23 -42 -51 -52 -62 -19 -24 -29 -58 -50 -172 l-15
-78 57 -25 c31 -13 66 -29 79 -34 12 -5 33 -14 47 -21 31 -14 35 -10 47 49 15
71 16 162 3 213 -14 51 -46 126 -67 154 -14 17 -16 16 -49 -24z"/>
<path d="M2340 4879 c-129 -35 -226 -106 -331 -244 -64 -84 -87 -125 -109
-192 -10 -32 -42 -96 -70 -143 -79 -134 -94 -179 -94 -290 -1 -149 45 -273
164 -450 96 -142 115 -151 300 -145 69 2 139 7 155 10 17 3 46 8 65 11 82 14
154 70 255 199 99 127 125 182 140 295 23 169 -9 474 -64 620 -55 144 -197
319 -270 333 -44 9 -98 7 -141 -4z"/>
<path d="M3620 4571 c-61 -20 -102 -42 -200 -108 -93 -62 -94 -63 -114 -113
-10 -25 -24 -61 -33 -80 -85 -197 -177 -421 -194 -470 -45 -140 -55 -239 -34
-321 28 -105 133 -212 313 -318 74 -44 185 -89 229 -94 175 -20 418 202 486
443 31 109 52 315 52 500 0 128 -19 207 -84 345 -52 109 -82 142 -166 180
-112 51 -179 60 -255 36z"/>
<path d="M701 4249 c-54 -59 -110 -168 -116 -226 -7 -63 9 -131 51 -220 25
-53 40 -73 54 -73 10 0 21 4 24 9 3 5 26 14 51 20 58 15 64 29 63 162 -1 85 3
112 20 150 17 37 19 53 12 80 -10 34 -93 139 -111 139 -5 0 -27 -19 -48 -41z"/>
<path d="M915 3657 c-80 -26 -303 -212 -338 -282 -16 -33 -37 -103 -44 -150
-2 -16 -6 -41 -9 -55 -3 -14 -7 -78 -9 -142 l-5 -117 49 -143 c27 -79 59 -167
70 -196 58 -147 246 -337 356 -362 72 -16 217 43 364 147 145 104 179 152 207
288 29 143 48 289 49 365 0 69 -29 134 -113 250 -34 47 -72 105 -84 130 -30
63 -82 108 -201 175 -53 29 -207 97 -207 90 0 -2 -12 0 -27 4 -16 4 -41 4 -58
-2z"/>
<path d="M4871 3110 c-50 -83 -91 -156 -91 -161 0 -6 15 -36 33 -67 18 -31 48
-90 67 -129 19 -40 37 -73 40 -73 6 0 14 17 81 185 67 165 69 206 16 312 -20
39 -41 74 -46 77 -5 4 -50 -62 -100 -144z"/>
<path d="M4344 2850 c-153 -53 -429 -199 -498 -263 -33 -31 -121 -214 -143
-297 -22 -84 -24 -303 -4 -375 18 -64 71 -144 128 -195 111 -97 263 -172 332
-163 87 12 196 93 415 308 99 97 110 122 121 285 4 47 13 117 21 155 35 165
-5 406 -77 474 -38 36 -124 69 -214 84 -16 3 -53 -3 -81 -13z"/>
<path d="M2220 2261 c-55 -12 -129 -48 -185 -90 -61 -47 -643 -624 -782 -776
-203 -222 -215 -239 -253 -335 -43 -109 -36 -314 13 -353 152 -122 278 -203
351 -227 47 -15 207 -8 331 15 44 8 92 15 107 15 25 0 86 -38 226 -140 42 -30
65 -40 115 -45 63 -8 162 -9 272 -5 77 4 111 -12 240 -113 149 -116 196 -140
277 -144 105 -4 218 39 366 139 128 86 164 161 165 342 1 153 -10 264 -32 333
-25 78 -72 196 -82 208 -5 5 -9 15 -9 22 0 7 -16 45 -35 85 -57 117 -110 241
-181 428 -125 331 -213 483 -304 530 -37 19 -154 54 -215 65 -16 2 -73 15
-126 28 -99 24 -197 31 -259 18z"/>
</g>
</svg>
