<?xml version="1.0" encoding="UTF-8"?><svg id="Layer_1" xmlns="http://www.w3.org/2000/svg" viewBox="0 0 90 90"><defs><style>.cls-1{fill:#fff;}.cls-2{fill:#231f20;}</style></defs><circle class="cls-2" cx="44.66" cy="46.21" r="36"/><circle class="cls-1" cx="44.66" cy="46.21" r="2.33"/><path class="cls-1" d="m44.66,56.33c-5.58,0-10.12-4.54-10.12-10.12s4.54-10.12,10.12-10.12,10.12,4.54,10.12,10.12-4.54,10.12-10.12,10.12Zm0-17.07c-3.83,0-6.96,3.12-6.96,6.95s3.12,6.96,6.96,6.96,6.95-3.12,6.95-6.96-3.12-6.95-6.95-6.95Z"/><path class="cls-1" d="m51.1,66.46h-12.89c-7.27,0-13.18-5.91-13.18-13.18v-14.13c0-7.27,5.91-13.18,13.18-13.18h12.89c7.27,0,13.18,5.91,13.18,13.18v14.13c0,7.27-5.91,13.18-13.18,13.18Zm-12.89-37.34c-5.52,0-10.02,4.49-10.02,10.02v14.13c0,5.52,4.49,10.02,10.02,10.02h12.89c5.52,0,10.02-4.49,10.02-10.02v-14.13c0-5.52-4.49-10.02-10.02-10.02h-12.89Z"/></svg>