<?xml version="1.0" encoding="UTF-8"?><svg id="Layer_1" xmlns="http://www.w3.org/2000/svg" viewBox="0 0 90 90"><defs><style>.cls-1{fill:#fff;}.cls-2{fill:#231f20;}</style></defs><circle class="cls-2" cx="44.66" cy="46.21" r="36"/><path class="cls-1" d="m66.11,64.77h-8.39v-13.13c0-3.13-.05-7.16-4.36-7.16s-5.03,3.41-5.03,6.94v13.35h-8.38v-27h8.04v3.69h.11c1.12-2.12,3.86-4.36,7.94-4.36,8.5,0,10.07,5.59,10.07,12.86v14.81Zm-35.63-30.69c-2.7,0-4.87-2.18-4.87-4.87s2.17-4.87,4.87-4.87,4.86,2.18,4.86,4.87c0,2.69-2.18,4.87-4.86,4.87Zm4.2,30.69h-8.4v-27h8.4v27Z"/></svg>